Coordinates
version=1
nRows=26
nColumns=27
inDegrees=yes

Units are S.I. units (second, meters, Newtons, ...)
If the header above contains a line with 'inDegrees', this indicates whether rotational values are in degrees (yes) or radians (no).

endheader
time	pelvis_rotation	pelvis_tilt	pelvis_list	pelvis_tx	pelvis_ty	pelvis_tz	hip_flexion_r	hip_adduction_r	hip_rotation_r	knee_angle_r	knee_rotation_r	knee_adduction_r	knee_angle_r_beta	ankle_angle_r	subtalar_angle_r	mtp_angle_r	hip_flexion_l	hip_adduction_l	hip_rotation_l	knee_angle_l	knee_rotation_l	knee_adduction_l	knee_angle_l_beta	ankle_angle_l	subtalar_angle_l	mtp_angle_l
     12.64000000	      6.41684562	    -50.78427709	      4.95289603	     -0.13085379	      0.76482122	     -1.18621984	    105.23977792	    -13.11150543	     -2.23367838	     68.47409425	      0.00000000	      3.64107992	      1.19509840	     11.83986744	      0.00000000	      0.00000000	    103.51672627	     -8.54420303	     -7.08592838	     63.63883638	      0.00000000	     -9.28809289	      1.11070723	      9.26952994	      0.00000000	      0.00000000
     12.64500000	      7.05475898	    -50.81603484	      5.13762005	     -0.13070990	      0.76500873	     -1.18665283	    105.22530334	    -13.70894233	     -2.52471246	     68.51426772	      0.00000000	      3.67355330	      1.19579956	     11.91487076	      0.00000000	      0.00000000	    103.58551370	     -7.88306160	     -6.64262006	     63.50192326	      0.00000000	     -8.83702611	      1.10831764	      9.17204777	      0.00000000	      0.00000000
     12.65000000	      6.42825893	    -50.81739146	      4.85677181	     -0.13053880	      0.76544701	     -1.18605923	    105.13021051	    -13.17305615	     -2.42745408	     68.35273747	      0.00000000	      3.68998088	      1.19298032	     11.83616151	      0.00000000	      0.00000000	    103.46829264	     -8.50339399	     -6.97572494	     63.51171915	      0.00000000	     -9.28122110	      1.10848861	      9.24424843	      0.00000000	      0.00000000
     12.65500000	      6.47782271	    -50.87493753	      4.93774783	     -0.13049518	      0.76568371	     -1.18609393	    105.17982964	    -13.21679226	     -2.41748529	     68.31858187	      0.00000000	      3.72943915	      1.19238419	     11.81087210	      0.00000000	      0.00000000	    103.47509901	     -8.46059636	     -7.00562888	     63.44734907	      0.00000000	     -9.27292446	      1.10736514	      9.23790295	      0.00000000	      0.00000000
     12.66000000	      6.61473402	    -50.88130170	      4.90070046	     -0.13030484	      0.76598326	     -1.18608276	    105.09968578	    -13.37970618	     -2.61016131	     68.27687383	      0.00000000	      3.77773510	      1.19165625	     11.82944272	      0.00000000	      0.00000000	    103.46239365	     -8.31531743	     -6.85924190	     63.37634782	      0.00000000	     -9.26252847	      1.10612594	      9.21846782	      0.00000000	      0.00000000
     12.66500000	      6.91120914	    -50.93555393	      5.02522173	     -0.13034361	      0.76613191	     -1.18638713	    105.14330496	    -13.63406191	     -2.67439679	     68.27059451	      0.00000000	      3.73265558	      1.19154666	     11.81175258	      0.00000000	      0.00000000	    103.52463696	     -7.96324111	     -6.60408460	     63.28008276	      0.00000000	     -8.81630859	      1.10444580	      9.10128550	      0.00000000	      0.00000000
     12.67000000	      6.13181461	    -50.90528685	      4.54430234	     -0.13011119	      0.76661411	     -1.18566219	    104.95183007	    -13.01044613	     -2.68798055	     68.07155302	      0.00000000	      3.74181485	      1.18807273	     11.73410869	      0.00000000	      0.00000000	    103.39155087	     -8.68233702	     -6.85882057	     63.31455910	      0.00000000	     -9.28280509	      1.10504752	      9.22753403	      0.00000000	      0.00000000
     12.67500000	      6.43827274	    -50.97161383	      4.81395480	     -0.13023393	      0.76672264	     -1.18605745	    105.06841359	    -13.23050199	     -2.59179903	     68.08378415	      0.00000000	      3.69779300	      1.18828620	     11.72051708	      0.00000000	      0.00000000	    103.43432747	     -8.34926586	     -6.74648036	     63.20914881	      0.00000000	     -8.84175787	      1.10320776	      9.09424110	      0.00000000	      0.00000000
     12.68000000	      6.04372164	    -50.95930685	      4.47979745	     -0.12996747	      0.76714890	     -1.18555636	    104.90645060	    -12.95961841	     -2.75507114	     67.94699315	      0.00000000	      3.76984967	      1.18589875	     11.70428935	      0.00000000	      0.00000000	    103.35870880	     -8.72386477	     -6.83635062	     63.21071312	      0.00000000	     -9.27839714	      1.10323507	      9.21405078	      0.00000000	      0.00000000
     12.68500000	      6.13860848	    -50.99516646	      4.54325874	     -0.12989154	      0.76739263	     -1.18562836	    104.91782839	    -13.04808369	     -2.78644398	     67.92054569	      0.00000000	      3.79854746	      1.18543715	     11.69599649	      0.00000000	      0.00000000	    103.35413399	     -8.62751783	     -6.81379695	     63.14533360	      0.00000000	     -9.25867658	      1.10209398	      9.21273160	      0.00000000	      0.00000000
     12.69000000	      6.12132089	    -50.98464408	      4.17487276	     -0.12957291	      0.76779898	     -1.18543636	    104.68429636	    -13.14443232	     -3.23121440	     67.80463471	      0.00000000	      3.80729345	      1.18341412	     11.74091018	      0.00000000	      0.00000000	    103.37595544	     -8.55537006	     -6.44831814	     63.11162723	      0.00000000	     -9.25944279	      1.10150569	      9.20815546	      0.00000000	      0.00000000
     12.69500000	      5.79071854	    -51.03196738	      4.19701168	     -0.12969957	      0.76800309	     -1.18530272	    104.76707014	    -12.80397500	     -2.94789143	     67.72457864	      0.00000000	      3.75189256	      1.18201688	     11.63864747	      0.00000000	      0.00000000	    103.32677681	     -8.85507496	     -6.70571905	     63.07542373	      0.00000000	     -9.27000144	      1.10087382	      9.18827216	      0.00000000	      0.00000000
     12.70000000	      5.67220446	    -51.05412552	      4.17000856	     -0.12962673	      0.76825680	     -1.18527546	    104.75519844	    -12.71451407	     -2.92438961	     67.66375468	      0.00000000	      3.75403549	      1.18095530	     11.61504384	      0.00000000	      0.00000000	    103.28970327	     -8.94098372	     -6.75833403	     63.03540976	      0.00000000	     -9.26067812	      1.10017545	      9.22170270	      0.00000000	      0.00000000
     12.70500000	      5.78539942	    -51.10259515	      4.29158027	     -0.12957917	      0.76849223	     -1.18539562	    104.79701347	    -12.80331470	     -2.90435218	     67.63689626	      0.00000000	      3.77574551	      1.18048654	     11.61326592	      0.00000000	      0.00000000	    103.28395253	     -8.83204417	     -6.77201855	     62.95796835	      0.00000000	     -9.24257731	      1.09882384	      9.21296523	      0.00000000	      0.00000000
     12.71000000	      5.94415904	    -51.14064501	      4.34184701	     -0.12948944	      0.76870253	     -1.18550172	    104.79253302	    -12.95370368	     -2.99930990	     67.60717841	      0.00000000	      3.80510151	      1.17996786	     11.62691937	      0.00000000	      0.00000000	    103.29994979	     -8.66269697	     -6.66797280	     62.89200230	      0.00000000	     -9.22990527	      1.09767251	      9.21082514	      0.00000000	      0.00000000
     12.71500000	      5.55945462	    -51.14913912	      4.10584375	     -0.12938253	      0.76904252	     -1.18528987	    104.70826726	    -12.66179357	     -3.00681718	     67.48151871	      0.00000000	      3.78588096	      1.17777469	     11.57898516	      0.00000000	      0.00000000	    103.25107219	     -8.95622811	     -6.71184376	     62.88031286	      0.00000000	     -9.23472989	      1.09746849	      9.22923627	      0.00000000	      0.00000000
     12.72000000	      5.30325592	    -51.15668522	      3.96729025	     -0.12931412	      0.76928461	     -1.18514347	    104.65575673	    -12.43365113	     -2.94328477	     67.38850034	      0.00000000	      3.71862325	      1.17615121	     11.55232353	      0.00000000	      0.00000000	    103.22081031	     -9.15433167	     -6.75093105	     62.87269096	      0.00000000	     -9.24069344	      1.09733547	      9.18588701	      0.00000000	      0.00000000
     12.72500000	      5.63187064	    -51.26054109	      4.32400345	     -0.12946195	      0.76931359	     -1.18569135	    104.84873442	    -12.68621099	     -2.81558138	     67.42592153	      0.00000000	      3.73995041	      1.17680433	     11.53633988	      0.00000000	      0.00000000	    103.28769658	     -8.79459130	     -6.67868618	     62.77671904	      0.00000000	     -8.77689562	      1.09566044	      9.12411963	      0.00000000	      0.00000000
     12.73000000	      5.66297948	    -51.20648184	      3.94420037	     -0.12886909	      0.76981165	     -1.18547082	    104.54035845	    -12.89669884	     -3.42289690	     67.33096524	      0.00000000	      3.89854327	      1.17514703	     11.60393496	      0.00000000	      0.00000000	    103.24857205	     -8.73362324	     -6.37977944	     62.75742211	      0.00000000	     -9.19482300	      1.09532365	      9.22554823	      0.00000000	      0.00000000
     12.73500000	      5.22247119	    -51.22527773	      3.97866105	     -0.12911439	      0.76991109	     -1.18554867	    104.63202584	    -12.44242704	     -2.98173305	     67.23696126	      0.00000000	      3.74113094	      1.17350635	     11.49713092	      0.00000000	      0.00000000	    103.17393254	     -9.04803306	     -6.60024756	     62.73514371	      0.00000000	     -8.76554286	      1.09493481	      9.13419050	      0.00000000	      0.00000000
     12.74000000	      5.17901681	    -51.19312334	      4.07441728	     -0.12885403	      0.77016373	     -1.18545129	    104.59234361	    -12.43050338	     -2.95883788	     67.21148442	      0.00000000	      3.86186794	      1.17306170	     11.48369809	      0.00000000	      0.00000000	    103.04471398	     -9.16096787	     -6.84375827	     62.70469367	      0.00000000	     -9.20342216	      1.09440336	      9.31182118	      0.00000000	      0.00000000
     12.74500000	      5.25621460	    -51.24458811	      4.12362170	     -0.12890193	      0.77023301	     -1.18576804	    104.63831914	    -12.49143267	     -2.92456965	     67.19134660	      0.00000000	      3.78952508	      1.17271023	     11.48020454	      0.00000000	      0.00000000	    103.10238826	     -8.98039575	     -6.65340150	     62.66492114	      0.00000000	     -8.75325682	      1.09370920	      9.18348863	      0.00000000	      0.00000000
     12.75000000	      5.30632091	    -51.20329842	      3.89073231	     -0.12840683	      0.77056158	     -1.18560345	    104.43035495	    -12.67053010	     -3.36394978	     67.14656084	      0.00000000	      3.96207166	      1.17192857	     11.56423713	      0.00000000	      0.00000000	    103.06821441	     -8.93571892	     -6.48094268	     62.66502092	      0.00000000	     -9.16924050	      1.09371094	      9.29688767	      0.00000000	      0.00000000
     12.75500000	      4.63926273	    -51.17117179	      3.69730151	     -0.12851586	      0.77067461	     -1.18553568	    104.40648707	    -12.05888415	     -2.99030228	     67.01638773	      0.00000000	      3.77419947	      1.16965662	     11.42172014	      0.00000000	      0.00000000	    102.96316746	     -9.42391884	     -6.65982340	     62.69709668	      0.00000000	     -8.77319895	      1.09427077	      9.23056203	      0.00000000	      0.00000000
     12.76000000	      4.57724291	    -51.18534273	      3.77976947	     -0.12833905	      0.77082069	     -1.18549316	    104.42828827	    -12.02361804	     -2.94521004	     67.00502025	      0.00000000	      3.89788344	      1.16945822	     11.43707518	      0.00000000	      0.00000000	    102.90478403	     -9.54340062	     -6.89114460	     62.69558952	      0.00000000	     -9.19463565	      1.09424446	      9.36260622	      0.00000000	      0.00000000
     12.76500000	      5.04004621	    -51.20888969	      3.92488193	     -0.12809744	      0.77089934	     -1.18583104	    104.41916435	    -12.48171740	     -3.20747499	     67.06802044	      0.00000000	      4.02102642	      1.17055778	     11.52770310	      0.00000000	      0.00000000	    102.95572695	     -9.10227124	     -6.63407130	     62.64416038	      0.00000000	     -9.14949931	      1.09334686	      9.35289341	      0.00000000	      0.00000000
